<mxfile host="app.diagrams.net" modified="2024-04-08T14:13:43.798Z" agent="Mozilla/5.0 (Windows NT 10.0; Win64; x64) AppleWebKit/537.36 (KHTML, like Gecko) Chrome/123.0.0.0 Safari/537.36 Edg/123.0.0.0" etag="ESR7REyqSOpFdZ53QW3Z" version="24.2.2" type="github">
  <diagram name="Page-1" id="e7e014a7-5840-1c2e-5031-d8a46d1fe8dd">
    <mxGraphModel dx="2753" dy="1615" grid="1" gridSize="10" guides="1" tooltips="1" connect="1" arrows="1" fold="1" page="1" pageScale="1" pageWidth="1169" pageHeight="826" background="none" math="0" shadow="0">
      <root>
        <mxCell id="0" />
        <mxCell id="1" parent="0" />
        <mxCell id="LxAjSilcedoxKvx_5Ozk-166" value="" style="rounded=0;whiteSpace=wrap;html=1;" vertex="1" parent="1">
          <mxGeometry x="-70" y="550" width="1110" height="100" as="geometry" />
        </mxCell>
        <mxCell id="LxAjSilcedoxKvx_5Ozk-165" value="" style="rounded=0;whiteSpace=wrap;html=1;" vertex="1" parent="1">
          <mxGeometry x="-30" y="410" width="1060" height="90" as="geometry" />
        </mxCell>
        <mxCell id="LxAjSilcedoxKvx_5Ozk-162" value="" style="rounded=0;whiteSpace=wrap;html=1;" vertex="1" parent="1">
          <mxGeometry x="-100" y="230" width="1280" height="160" as="geometry" />
        </mxCell>
        <mxCell id="LxAjSilcedoxKvx_5Ozk-155" value="" style="rounded=0;whiteSpace=wrap;html=1;dashed=1;" vertex="1" parent="1">
          <mxGeometry x="-140" y="-40" width="1210" height="190" as="geometry" />
        </mxCell>
        <mxCell id="LxAjSilcedoxKvx_5Ozk-151" value="" style="rounded=0;whiteSpace=wrap;html=1;dashed=1;" vertex="1" parent="1">
          <mxGeometry x="-150" y="-180" width="1030" height="110" as="geometry" />
        </mxCell>
        <mxCell id="LxAjSilcedoxKvx_5Ozk-46" value="" style="edgeStyle=orthogonalEdgeStyle;rounded=0;orthogonalLoop=1;jettySize=auto;html=1;" edge="1" parent="1" source="LxAjSilcedoxKvx_5Ozk-41" target="LxAjSilcedoxKvx_5Ozk-45">
          <mxGeometry relative="1" as="geometry" />
        </mxCell>
        <mxCell id="LxAjSilcedoxKvx_5Ozk-41" value="Note" style="rounded=0;whiteSpace=wrap;html=1;" vertex="1" parent="1">
          <mxGeometry x="180" y="-150" width="120" height="50" as="geometry" />
        </mxCell>
        <mxCell id="LxAjSilcedoxKvx_5Ozk-48" value="" style="edgeStyle=orthogonalEdgeStyle;rounded=0;orthogonalLoop=1;jettySize=auto;html=1;" edge="1" parent="1" source="LxAjSilcedoxKvx_5Ozk-45" target="LxAjSilcedoxKvx_5Ozk-47">
          <mxGeometry relative="1" as="geometry" />
        </mxCell>
        <mxCell id="LxAjSilcedoxKvx_5Ozk-136" style="edgeStyle=orthogonalEdgeStyle;rounded=0;orthogonalLoop=1;jettySize=auto;html=1;exitX=0.5;exitY=1;exitDx=0;exitDy=0;entryX=1;entryY=0;entryDx=0;entryDy=0;" edge="1" parent="1" source="LxAjSilcedoxKvx_5Ozk-45" target="LxAjSilcedoxKvx_5Ozk-52">
          <mxGeometry relative="1" as="geometry" />
        </mxCell>
        <mxCell id="LxAjSilcedoxKvx_5Ozk-45" value="WorkingNote" style="whiteSpace=wrap;html=1;rounded=0;" vertex="1" parent="1">
          <mxGeometry x="399" y="-150" width="120" height="50" as="geometry" />
        </mxCell>
        <mxCell id="LxAjSilcedoxKvx_5Ozk-149" style="edgeStyle=orthogonalEdgeStyle;rounded=0;orthogonalLoop=1;jettySize=auto;html=1;exitX=0.25;exitY=0;exitDx=0;exitDy=0;entryX=0.75;entryY=0;entryDx=0;entryDy=0;" edge="1" parent="1" source="LxAjSilcedoxKvx_5Ozk-47" target="LxAjSilcedoxKvx_5Ozk-52">
          <mxGeometry relative="1" as="geometry" />
        </mxCell>
        <mxCell id="LxAjSilcedoxKvx_5Ozk-47" value="NotesListActivity" style="whiteSpace=wrap;html=1;rounded=0;" vertex="1" parent="1">
          <mxGeometry x="870" y="83" width="120" height="50" as="geometry" />
        </mxCell>
        <mxCell id="LxAjSilcedoxKvx_5Ozk-141" style="edgeStyle=orthogonalEdgeStyle;rounded=0;orthogonalLoop=1;jettySize=auto;html=1;exitX=0.25;exitY=1;exitDx=0;exitDy=0;entryX=0.75;entryY=1;entryDx=0;entryDy=0;" edge="1" parent="1" source="LxAjSilcedoxKvx_5Ozk-52" target="LxAjSilcedoxKvx_5Ozk-78">
          <mxGeometry relative="1" as="geometry" />
        </mxCell>
        <mxCell id="LxAjSilcedoxKvx_5Ozk-52" value="NoteEditActivity" style="rounded=0;whiteSpace=wrap;html=1;strokeColor=default;align=center;verticalAlign=middle;fontFamily=Helvetica;fontSize=12;fontColor=default;fillColor=default;" vertex="1" parent="1">
          <mxGeometry x="338" y="83" width="120" height="50" as="geometry" />
        </mxCell>
        <mxCell id="LxAjSilcedoxKvx_5Ozk-131" style="edgeStyle=orthogonalEdgeStyle;rounded=0;orthogonalLoop=1;jettySize=auto;html=1;exitX=0.5;exitY=0;exitDx=0;exitDy=0;" edge="1" parent="1" source="LxAjSilcedoxKvx_5Ozk-53">
          <mxGeometry relative="1" as="geometry">
            <mxPoint x="390" y="80" as="targetPoint" />
          </mxGeometry>
        </mxCell>
        <mxCell id="LxAjSilcedoxKvx_5Ozk-53" value="Alarm" style="rounded=0;whiteSpace=wrap;html=1;strokeColor=default;align=center;verticalAlign=middle;fontFamily=Helvetica;fontSize=12;fontColor=default;fillColor=default;" vertex="1" parent="1">
          <mxGeometry x="-110" y="20" width="120" height="40" as="geometry" />
        </mxCell>
        <mxCell id="LxAjSilcedoxKvx_5Ozk-90" style="edgeStyle=orthogonalEdgeStyle;rounded=0;orthogonalLoop=1;jettySize=auto;html=1;exitX=0.25;exitY=0;exitDx=0;exitDy=0;entryX=0.5;entryY=1;entryDx=0;entryDy=0;" edge="1" parent="1" source="LxAjSilcedoxKvx_5Ozk-55" target="LxAjSilcedoxKvx_5Ozk-63">
          <mxGeometry relative="1" as="geometry" />
        </mxCell>
        <mxCell id="LxAjSilcedoxKvx_5Ozk-92" style="edgeStyle=orthogonalEdgeStyle;rounded=0;orthogonalLoop=1;jettySize=auto;html=1;exitX=0.75;exitY=0;exitDx=0;exitDy=0;entryX=0;entryY=0.5;entryDx=0;entryDy=0;" edge="1" parent="1" source="LxAjSilcedoxKvx_5Ozk-55" target="LxAjSilcedoxKvx_5Ozk-59">
          <mxGeometry relative="1" as="geometry" />
        </mxCell>
        <mxCell id="LxAjSilcedoxKvx_5Ozk-93" style="edgeStyle=orthogonalEdgeStyle;rounded=0;orthogonalLoop=1;jettySize=auto;html=1;exitX=1;exitY=0.5;exitDx=0;exitDy=0;entryX=0;entryY=0.5;entryDx=0;entryDy=0;" edge="1" parent="1" source="LxAjSilcedoxKvx_5Ozk-55" target="LxAjSilcedoxKvx_5Ozk-67">
          <mxGeometry relative="1" as="geometry" />
        </mxCell>
        <mxCell id="LxAjSilcedoxKvx_5Ozk-101" style="edgeStyle=orthogonalEdgeStyle;rounded=0;orthogonalLoop=1;jettySize=auto;html=1;exitX=0;exitY=0.5;exitDx=0;exitDy=0;entryX=1;entryY=0.25;entryDx=0;entryDy=0;" edge="1" parent="1" source="LxAjSilcedoxKvx_5Ozk-55" target="LxAjSilcedoxKvx_5Ozk-61">
          <mxGeometry relative="1" as="geometry" />
        </mxCell>
        <mxCell id="LxAjSilcedoxKvx_5Ozk-106" style="edgeStyle=orthogonalEdgeStyle;rounded=0;orthogonalLoop=1;jettySize=auto;html=1;exitX=0.75;exitY=1;exitDx=0;exitDy=0;entryX=0.5;entryY=0;entryDx=0;entryDy=0;" edge="1" parent="1" source="LxAjSilcedoxKvx_5Ozk-55" target="LxAjSilcedoxKvx_5Ozk-70">
          <mxGeometry relative="1" as="geometry" />
        </mxCell>
        <mxCell id="LxAjSilcedoxKvx_5Ozk-123" style="edgeStyle=orthogonalEdgeStyle;rounded=0;orthogonalLoop=1;jettySize=auto;html=1;exitX=1;exitY=0;exitDx=0;exitDy=0;entryX=0.25;entryY=1;entryDx=0;entryDy=0;" edge="1" parent="1" source="LxAjSilcedoxKvx_5Ozk-55" target="LxAjSilcedoxKvx_5Ozk-66">
          <mxGeometry relative="1" as="geometry" />
        </mxCell>
        <mxCell id="LxAjSilcedoxKvx_5Ozk-137" style="edgeStyle=orthogonalEdgeStyle;rounded=0;orthogonalLoop=1;jettySize=auto;html=1;exitX=0.75;exitY=0;exitDx=0;exitDy=0;entryX=0;entryY=0.25;entryDx=0;entryDy=0;" edge="1" parent="1" source="LxAjSilcedoxKvx_5Ozk-55" target="LxAjSilcedoxKvx_5Ozk-52">
          <mxGeometry relative="1" as="geometry" />
        </mxCell>
        <mxCell id="LxAjSilcedoxKvx_5Ozk-55" value="Notes" style="rounded=0;whiteSpace=wrap;html=1;strokeColor=default;align=center;verticalAlign=middle;fontFamily=Helvetica;fontSize=12;fontColor=default;fillColor=default;" vertex="1" parent="1">
          <mxGeometry x="230" y="298.5" width="110" height="45" as="geometry" />
        </mxCell>
        <mxCell id="LxAjSilcedoxKvx_5Ozk-59" value="BackupUtils" style="whiteSpace=wrap;html=1;rounded=0;" vertex="1" parent="1">
          <mxGeometry x="420" y="257.5" width="130" height="41" as="geometry" />
        </mxCell>
        <mxCell id="LxAjSilcedoxKvx_5Ozk-61" value="NotesDatabaseHelper" style="whiteSpace=wrap;html=1;rounded=0;" vertex="1" parent="1">
          <mxGeometry x="-50" y="310" width="130" height="40" as="geometry" />
        </mxCell>
        <mxCell id="LxAjSilcedoxKvx_5Ozk-63" value="DateTime" style="rounded=0;whiteSpace=wrap;html=1;" vertex="1" parent="1">
          <mxGeometry x="-110" y="92" width="120" height="40" as="geometry" />
        </mxCell>
        <mxCell id="LxAjSilcedoxKvx_5Ozk-116" style="edgeStyle=orthogonalEdgeStyle;rounded=0;orthogonalLoop=1;jettySize=auto;html=1;exitX=0.25;exitY=1;exitDx=0;exitDy=0;entryX=0.75;entryY=0;entryDx=0;entryDy=0;" edge="1" parent="1" source="LxAjSilcedoxKvx_5Ozk-65" target="LxAjSilcedoxKvx_5Ozk-75">
          <mxGeometry relative="1" as="geometry" />
        </mxCell>
        <mxCell id="LxAjSilcedoxKvx_5Ozk-65" value="GTaskStringUtils" style="rounded=0;whiteSpace=wrap;html=1;" vertex="1" parent="1">
          <mxGeometry x="420" y="336" width="120" height="40" as="geometry" />
        </mxCell>
        <mxCell id="LxAjSilcedoxKvx_5Ozk-79" style="edgeStyle=orthogonalEdgeStyle;rounded=0;orthogonalLoop=1;jettySize=auto;html=1;entryX=1;entryY=0.5;entryDx=0;entryDy=0;" edge="1" parent="1" source="LxAjSilcedoxKvx_5Ozk-66" target="LxAjSilcedoxKvx_5Ozk-52">
          <mxGeometry relative="1" as="geometry" />
        </mxCell>
        <mxCell id="LxAjSilcedoxKvx_5Ozk-134" style="edgeStyle=orthogonalEdgeStyle;rounded=0;orthogonalLoop=1;jettySize=auto;html=1;exitX=0;exitY=1;exitDx=0;exitDy=0;entryX=0.25;entryY=0;entryDx=0;entryDy=0;" edge="1" parent="1" source="LxAjSilcedoxKvx_5Ozk-66" target="LxAjSilcedoxKvx_5Ozk-69">
          <mxGeometry relative="1" as="geometry" />
        </mxCell>
        <mxCell id="LxAjSilcedoxKvx_5Ozk-66" value="NotesPreferenceActivity" style="rounded=0;whiteSpace=wrap;html=1;" vertex="1" parent="1">
          <mxGeometry x="580" width="140" height="50" as="geometry" />
        </mxCell>
        <mxCell id="LxAjSilcedoxKvx_5Ozk-94" style="edgeStyle=orthogonalEdgeStyle;rounded=0;orthogonalLoop=1;jettySize=auto;html=1;exitX=1;exitY=0.5;exitDx=0;exitDy=0;entryX=0;entryY=0.5;entryDx=0;entryDy=0;" edge="1" parent="1" source="LxAjSilcedoxKvx_5Ozk-67" target="LxAjSilcedoxKvx_5Ozk-68">
          <mxGeometry relative="1" as="geometry" />
        </mxCell>
        <mxCell id="LxAjSilcedoxKvx_5Ozk-130" style="edgeStyle=orthogonalEdgeStyle;rounded=0;orthogonalLoop=1;jettySize=auto;html=1;exitX=0.5;exitY=0;exitDx=0;exitDy=0;entryX=0;entryY=0.5;entryDx=0;entryDy=0;" edge="1" parent="1" source="LxAjSilcedoxKvx_5Ozk-67" target="LxAjSilcedoxKvx_5Ozk-47">
          <mxGeometry relative="1" as="geometry" />
        </mxCell>
        <mxCell id="LxAjSilcedoxKvx_5Ozk-138" style="edgeStyle=orthogonalEdgeStyle;rounded=0;orthogonalLoop=1;jettySize=auto;html=1;exitX=0.25;exitY=0;exitDx=0;exitDy=0;entryX=1;entryY=0.75;entryDx=0;entryDy=0;" edge="1" parent="1" source="LxAjSilcedoxKvx_5Ozk-67" target="LxAjSilcedoxKvx_5Ozk-52">
          <mxGeometry relative="1" as="geometry" />
        </mxCell>
        <mxCell id="LxAjSilcedoxKvx_5Ozk-67" value="DataUtils" style="rounded=0;whiteSpace=wrap;html=1;" vertex="1" parent="1">
          <mxGeometry x="740" y="306" width="80" height="30" as="geometry" />
        </mxCell>
        <mxCell id="LxAjSilcedoxKvx_5Ozk-96" style="edgeStyle=orthogonalEdgeStyle;rounded=0;orthogonalLoop=1;jettySize=auto;html=1;exitX=0.5;exitY=0;exitDx=0;exitDy=0;entryX=0.75;entryY=0;entryDx=0;entryDy=0;" edge="1" parent="1" source="LxAjSilcedoxKvx_5Ozk-68" target="LxAjSilcedoxKvx_5Ozk-45">
          <mxGeometry relative="1" as="geometry" />
        </mxCell>
        <mxCell id="LxAjSilcedoxKvx_5Ozk-120" style="edgeStyle=orthogonalEdgeStyle;rounded=0;orthogonalLoop=1;jettySize=auto;html=1;exitX=1;exitY=0.5;exitDx=0;exitDy=0;entryX=1;entryY=0.5;entryDx=0;entryDy=0;" edge="1" parent="1" source="LxAjSilcedoxKvx_5Ozk-68" target="LxAjSilcedoxKvx_5Ozk-78">
          <mxGeometry relative="1" as="geometry" />
        </mxCell>
        <mxCell id="LxAjSilcedoxKvx_5Ozk-148" style="edgeStyle=orthogonalEdgeStyle;rounded=0;orthogonalLoop=1;jettySize=auto;html=1;exitX=1;exitY=0.25;exitDx=0;exitDy=0;entryX=1;entryY=0.5;entryDx=0;entryDy=0;" edge="1" parent="1" source="LxAjSilcedoxKvx_5Ozk-68" target="LxAjSilcedoxKvx_5Ozk-47">
          <mxGeometry relative="1" as="geometry" />
        </mxCell>
        <mxCell id="LxAjSilcedoxKvx_5Ozk-68" value="ResourceParser" style="rounded=0;whiteSpace=wrap;html=1;" vertex="1" parent="1">
          <mxGeometry x="940" y="300" width="120" height="40" as="geometry" />
        </mxCell>
        <mxCell id="LxAjSilcedoxKvx_5Ozk-105" style="edgeStyle=orthogonalEdgeStyle;rounded=0;orthogonalLoop=1;jettySize=auto;html=1;entryX=0;entryY=0.5;entryDx=0;entryDy=0;" edge="1" parent="1" source="LxAjSilcedoxKvx_5Ozk-69" target="LxAjSilcedoxKvx_5Ozk-70">
          <mxGeometry relative="1" as="geometry" />
        </mxCell>
        <mxCell id="LxAjSilcedoxKvx_5Ozk-69" value="GTaskClient" style="rounded=0;whiteSpace=wrap;html=1;" vertex="1" parent="1">
          <mxGeometry x="100" y="430" width="130" height="50" as="geometry" />
        </mxCell>
        <mxCell id="LxAjSilcedoxKvx_5Ozk-126" style="edgeStyle=orthogonalEdgeStyle;rounded=0;orthogonalLoop=1;jettySize=auto;html=1;exitX=1;exitY=0.5;exitDx=0;exitDy=0;entryX=0;entryY=0.5;entryDx=0;entryDy=0;" edge="1" parent="1" source="LxAjSilcedoxKvx_5Ozk-70" target="LxAjSilcedoxKvx_5Ozk-71">
          <mxGeometry relative="1" as="geometry" />
        </mxCell>
        <mxCell id="LxAjSilcedoxKvx_5Ozk-70" value="GTasjManager" style="rounded=0;whiteSpace=wrap;html=1;" vertex="1" parent="1">
          <mxGeometry x="315" y="430" width="120" height="50" as="geometry" />
        </mxCell>
        <mxCell id="LxAjSilcedoxKvx_5Ozk-114" style="edgeStyle=orthogonalEdgeStyle;rounded=0;orthogonalLoop=1;jettySize=auto;html=1;entryX=0;entryY=0.5;entryDx=0;entryDy=0;" edge="1" parent="1" source="LxAjSilcedoxKvx_5Ozk-71" target="LxAjSilcedoxKvx_5Ozk-72">
          <mxGeometry relative="1" as="geometry" />
        </mxCell>
        <mxCell id="LxAjSilcedoxKvx_5Ozk-71" value="GTaskAsyncTask" style="rounded=0;whiteSpace=wrap;html=1;" vertex="1" parent="1">
          <mxGeometry x="560" y="430" width="120" height="50" as="geometry" />
        </mxCell>
        <mxCell id="LxAjSilcedoxKvx_5Ozk-125" style="edgeStyle=orthogonalEdgeStyle;rounded=0;orthogonalLoop=1;jettySize=auto;html=1;exitX=0.5;exitY=0;exitDx=0;exitDy=0;entryX=1;entryY=0.25;entryDx=0;entryDy=0;" edge="1" parent="1" source="LxAjSilcedoxKvx_5Ozk-72" target="LxAjSilcedoxKvx_5Ozk-66">
          <mxGeometry relative="1" as="geometry" />
        </mxCell>
        <mxCell id="LxAjSilcedoxKvx_5Ozk-72" value="GTaskSyncService" style="rounded=0;whiteSpace=wrap;html=1;" vertex="1" parent="1">
          <mxGeometry x="770" y="430" width="120" height="50" as="geometry" />
        </mxCell>
        <mxCell id="LxAjSilcedoxKvx_5Ozk-108" style="edgeStyle=orthogonalEdgeStyle;rounded=0;orthogonalLoop=1;jettySize=auto;html=1;exitX=0.75;exitY=0;exitDx=0;exitDy=0;entryX=0.25;entryY=1;entryDx=0;entryDy=0;" edge="1" parent="1" source="LxAjSilcedoxKvx_5Ozk-73" target="LxAjSilcedoxKvx_5Ozk-70">
          <mxGeometry relative="1" as="geometry" />
        </mxCell>
        <mxCell id="LxAjSilcedoxKvx_5Ozk-118" style="edgeStyle=orthogonalEdgeStyle;rounded=0;orthogonalLoop=1;jettySize=auto;html=1;exitX=0.25;exitY=0;exitDx=0;exitDy=0;entryX=0;entryY=0.5;entryDx=0;entryDy=0;" edge="1" parent="1" source="LxAjSilcedoxKvx_5Ozk-73" target="LxAjSilcedoxKvx_5Ozk-69">
          <mxGeometry relative="1" as="geometry" />
        </mxCell>
        <mxCell id="LxAjSilcedoxKvx_5Ozk-73" value="Node" style="rounded=0;whiteSpace=wrap;html=1;" vertex="1" parent="1">
          <mxGeometry x="30" y="570" width="120" height="40" as="geometry" />
        </mxCell>
        <mxCell id="LxAjSilcedoxKvx_5Ozk-74" value="Task" style="rounded=0;whiteSpace=wrap;html=1;" vertex="1" parent="1">
          <mxGeometry x="210" y="570" width="110" height="30" as="geometry" />
        </mxCell>
        <mxCell id="LxAjSilcedoxKvx_5Ozk-75" value="TaskList" style="rounded=0;whiteSpace=wrap;html=1;" vertex="1" parent="1">
          <mxGeometry x="366" y="570" width="100" height="35" as="geometry" />
        </mxCell>
        <mxCell id="LxAjSilcedoxKvx_5Ozk-111" style="edgeStyle=orthogonalEdgeStyle;rounded=0;orthogonalLoop=1;jettySize=auto;html=1;exitX=0.25;exitY=0;exitDx=0;exitDy=0;entryX=0.75;entryY=1;entryDx=0;entryDy=0;" edge="1" parent="1" source="LxAjSilcedoxKvx_5Ozk-76" target="LxAjSilcedoxKvx_5Ozk-70">
          <mxGeometry relative="1" as="geometry" />
        </mxCell>
        <mxCell id="LxAjSilcedoxKvx_5Ozk-76" value="MetaData" style="rounded=0;whiteSpace=wrap;html=1;" vertex="1" parent="1">
          <mxGeometry x="540" y="565" width="120" height="40" as="geometry" />
        </mxCell>
        <mxCell id="LxAjSilcedoxKvx_5Ozk-112" style="edgeStyle=orthogonalEdgeStyle;rounded=0;orthogonalLoop=1;jettySize=auto;html=1;exitX=0.25;exitY=0;exitDx=0;exitDy=0;entryX=1;entryY=1;entryDx=0;entryDy=0;" edge="1" parent="1" source="LxAjSilcedoxKvx_5Ozk-77" target="LxAjSilcedoxKvx_5Ozk-70">
          <mxGeometry relative="1" as="geometry" />
        </mxCell>
        <mxCell id="LxAjSilcedoxKvx_5Ozk-115" style="edgeStyle=orthogonalEdgeStyle;rounded=0;orthogonalLoop=1;jettySize=auto;html=1;exitX=1;exitY=0.5;exitDx=0;exitDy=0;entryX=0;entryY=0.5;entryDx=0;entryDy=0;" edge="1" parent="1" source="LxAjSilcedoxKvx_5Ozk-77" target="LxAjSilcedoxKvx_5Ozk-78">
          <mxGeometry relative="1" as="geometry" />
        </mxCell>
        <mxCell id="LxAjSilcedoxKvx_5Ozk-77" value="sqlData" style="rounded=0;whiteSpace=wrap;html=1;" vertex="1" parent="1">
          <mxGeometry x="710" y="565" width="120" height="40" as="geometry" />
        </mxCell>
        <mxCell id="LxAjSilcedoxKvx_5Ozk-78" value="sqlNote" style="rounded=0;whiteSpace=wrap;html=1;" vertex="1" parent="1">
          <mxGeometry x="880" y="565" width="120" height="40" as="geometry" />
        </mxCell>
        <mxCell id="LxAjSilcedoxKvx_5Ozk-89" style="edgeStyle=orthogonalEdgeStyle;rounded=0;orthogonalLoop=1;jettySize=auto;html=1;exitX=1;exitY=0.5;exitDx=0;exitDy=0;entryX=0;entryY=0.75;entryDx=0;entryDy=0;" edge="1" parent="1" source="LxAjSilcedoxKvx_5Ozk-80" target="LxAjSilcedoxKvx_5Ozk-52">
          <mxGeometry relative="1" as="geometry" />
        </mxCell>
        <mxCell id="LxAjSilcedoxKvx_5Ozk-80" value="Contact" style="rounded=0;whiteSpace=wrap;html=1;strokeColor=default;align=center;verticalAlign=middle;fontFamily=Helvetica;fontSize=12;fontColor=default;fillColor=default;" vertex="1" parent="1">
          <mxGeometry x="-50" y="268.5" width="140" height="30" as="geometry" />
        </mxCell>
        <mxCell id="LxAjSilcedoxKvx_5Ozk-104" style="edgeStyle=orthogonalEdgeStyle;rounded=0;orthogonalLoop=1;jettySize=auto;html=1;exitX=0;exitY=0.5;exitDx=0;exitDy=0;entryX=0.688;entryY=0.01;entryDx=0;entryDy=0;entryPerimeter=0;" edge="1" parent="1" source="LxAjSilcedoxKvx_5Ozk-65" target="LxAjSilcedoxKvx_5Ozk-69">
          <mxGeometry relative="1" as="geometry" />
        </mxCell>
        <mxCell id="LxAjSilcedoxKvx_5Ozk-107" style="edgeStyle=orthogonalEdgeStyle;rounded=0;orthogonalLoop=1;jettySize=auto;html=1;exitX=0;exitY=0.75;exitDx=0;exitDy=0;entryX=0.7;entryY=-0.02;entryDx=0;entryDy=0;entryPerimeter=0;" edge="1" parent="1" source="LxAjSilcedoxKvx_5Ozk-65" target="LxAjSilcedoxKvx_5Ozk-70">
          <mxGeometry relative="1" as="geometry" />
        </mxCell>
        <mxCell id="LxAjSilcedoxKvx_5Ozk-119" style="edgeStyle=orthogonalEdgeStyle;rounded=0;orthogonalLoop=1;jettySize=auto;html=1;exitX=0.25;exitY=1;exitDx=0;exitDy=0;entryX=0.427;entryY=0;entryDx=0;entryDy=0;entryPerimeter=0;" edge="1" parent="1" source="LxAjSilcedoxKvx_5Ozk-55" target="LxAjSilcedoxKvx_5Ozk-74">
          <mxGeometry relative="1" as="geometry" />
        </mxCell>
        <mxCell id="LxAjSilcedoxKvx_5Ozk-122" style="edgeStyle=orthogonalEdgeStyle;rounded=0;orthogonalLoop=1;jettySize=auto;html=1;exitX=1;exitY=0.5;exitDx=0;exitDy=0;entryX=0.671;entryY=0.03;entryDx=0;entryDy=0;entryPerimeter=0;" edge="1" parent="1" source="LxAjSilcedoxKvx_5Ozk-66" target="LxAjSilcedoxKvx_5Ozk-71">
          <mxGeometry relative="1" as="geometry" />
        </mxCell>
        <mxCell id="LxAjSilcedoxKvx_5Ozk-132" style="edgeStyle=orthogonalEdgeStyle;rounded=0;orthogonalLoop=1;jettySize=auto;html=1;exitX=0.5;exitY=0;exitDx=0;exitDy=0;entryX=0.1;entryY=-0.053;entryDx=0;entryDy=0;entryPerimeter=0;" edge="1" parent="1" source="LxAjSilcedoxKvx_5Ozk-66" target="LxAjSilcedoxKvx_5Ozk-69">
          <mxGeometry relative="1" as="geometry" />
        </mxCell>
        <mxCell id="LxAjSilcedoxKvx_5Ozk-135" style="edgeStyle=orthogonalEdgeStyle;rounded=0;orthogonalLoop=1;jettySize=auto;html=1;exitX=0.5;exitY=0;exitDx=0;exitDy=0;entryX=0.877;entryY=1;entryDx=0;entryDy=0;entryPerimeter=0;" edge="1" parent="1" source="LxAjSilcedoxKvx_5Ozk-55" target="LxAjSilcedoxKvx_5Ozk-41">
          <mxGeometry relative="1" as="geometry" />
        </mxCell>
        <mxCell id="LxAjSilcedoxKvx_5Ozk-142" style="edgeStyle=orthogonalEdgeStyle;rounded=0;orthogonalLoop=1;jettySize=auto;html=1;exitX=0.25;exitY=0;exitDx=0;exitDy=0;entryX=0.63;entryY=0.971;entryDx=0;entryDy=0;entryPerimeter=0;" edge="1" parent="1" source="LxAjSilcedoxKvx_5Ozk-75" target="LxAjSilcedoxKvx_5Ozk-70">
          <mxGeometry relative="1" as="geometry" />
        </mxCell>
        <mxCell id="LxAjSilcedoxKvx_5Ozk-150" style="edgeStyle=orthogonalEdgeStyle;rounded=0;orthogonalLoop=1;jettySize=auto;html=1;exitX=0.25;exitY=0;exitDx=0;exitDy=0;entryX=0.833;entryY=0.94;entryDx=0;entryDy=0;entryPerimeter=0;" edge="1" parent="1" source="LxAjSilcedoxKvx_5Ozk-68" target="LxAjSilcedoxKvx_5Ozk-47">
          <mxGeometry relative="1" as="geometry" />
        </mxCell>
        <mxCell id="LxAjSilcedoxKvx_5Ozk-153" value="&lt;font style=&quot;font-size: 24px;&quot;&gt;model&lt;/font&gt;" style="text;html=1;align=center;verticalAlign=middle;resizable=0;points=[];autosize=1;strokeColor=none;fillColor=none;" vertex="1" parent="1">
          <mxGeometry x="-240" y="-157" width="90" height="40" as="geometry" />
        </mxCell>
        <mxCell id="LxAjSilcedoxKvx_5Ozk-158" value="&lt;font style=&quot;font-size: 24px;&quot;&gt;UI&lt;/font&gt;" style="text;html=1;align=center;verticalAlign=middle;resizable=0;points=[];autosize=1;strokeColor=none;fillColor=none;" vertex="1" parent="1">
          <mxGeometry x="-240" y="35" width="50" height="40" as="geometry" />
        </mxCell>
        <mxCell id="LxAjSilcedoxKvx_5Ozk-164" value="&lt;font style=&quot;font-size: 24px;&quot;&gt;DATA&lt;/font&gt;" style="text;html=1;align=center;verticalAlign=middle;resizable=0;points=[];autosize=1;strokeColor=none;fillColor=none;" vertex="1" parent="1">
          <mxGeometry x="-215" y="283" width="80" height="40" as="geometry" />
        </mxCell>
        <mxCell id="LxAjSilcedoxKvx_5Ozk-167" value="&lt;font style=&quot;font-size: 24px;&quot;&gt;TASK.remote&lt;/font&gt;" style="text;html=1;align=center;verticalAlign=middle;whiteSpace=wrap;rounded=0;" vertex="1" parent="1">
          <mxGeometry x="-180" y="440" width="90" height="30" as="geometry" />
        </mxCell>
        <mxCell id="LxAjSilcedoxKvx_5Ozk-168" value="&lt;font style=&quot;font-size: 24px;&quot;&gt;gtask.data&lt;/font&gt;" style="text;html=1;align=center;verticalAlign=middle;whiteSpace=wrap;rounded=0;" vertex="1" parent="1">
          <mxGeometry x="-200" y="580" width="90" height="40" as="geometry" />
        </mxCell>
      </root>
    </mxGraphModel>
  </diagram>
</mxfile>
